<svg width="216" height="117" viewBox="0 0 216 117" fill="none" xmlns="http://www.w3.org/2000/svg">
<rect y="32.5891" width="114.75" height="84.411" fill="#05FA97"/>
<path d="M216 11.2192L114.75 31.8186V117L216 93.0601V11.2192Z" fill="#D904FE"/>
<path d="M89.0999 0L0.337402 32.8562H112.725L216 10.9521H205.537L89.0999 0Z" fill="#6F7FCA"/>
<path d="M34.0078 77.9699C32.0781 77.4152 30.6719 76.7355 29.7891 75.9308C28.9141 75.1183 28.4766 74.1183 28.4766 72.9308C28.4766 71.5871 29.0117 70.4777 30.082 69.6027C31.1602 68.7199 32.5586 68.2785 34.2773 68.2785C35.4492 68.2785 36.4922 68.5051 37.4062 68.9582C38.3281 69.4113 39.0391 70.0363 39.5391 70.8332C40.0469 71.6301 40.3008 72.5012 40.3008 73.4465H38.0391C38.0391 72.4152 37.7109 71.6066 37.0547 71.0207C36.3984 70.4269 35.4727 70.1301 34.2773 70.1301C33.168 70.1301 32.3008 70.3762 31.6758 70.8683C31.0586 71.3527 30.75 72.0285 30.75 72.8957C30.75 73.591 31.043 74.1808 31.6289 74.6652C32.2227 75.1418 33.2266 75.5793 34.6406 75.9777C36.0625 76.3762 37.1719 76.8176 37.9688 77.3019C38.7734 77.7785 39.3672 78.3371 39.75 78.9777C40.1406 79.6183 40.3359 80.3723 40.3359 81.2394C40.3359 82.6223 39.7969 83.7316 38.7188 84.5676C37.6406 85.3957 36.1992 85.8098 34.3945 85.8098C33.2227 85.8098 32.1289 85.5871 31.1133 85.1418C30.0977 84.6887 29.3125 84.0715 28.7578 83.2902C28.2109 82.509 27.9375 81.6223 27.9375 80.6301H30.1992C30.1992 81.6613 30.5781 82.4777 31.3359 83.0793C32.1016 83.673 33.1211 83.9699 34.3945 83.9699C35.582 83.9699 36.4922 83.7277 37.125 83.2433C37.7578 82.759 38.0742 82.0988 38.0742 81.2629C38.0742 80.4269 37.7812 79.7824 37.1953 79.3293C36.6094 78.8683 35.5469 78.4152 34.0078 77.9699ZM45.0586 74.4308C46.0195 73.2512 47.2695 72.6613 48.8086 72.6613C51.4883 72.6613 52.8398 74.173 52.8633 77.1965V85.5754H50.6953V77.1848C50.6875 76.2707 50.4766 75.5949 50.0625 75.1574C49.6562 74.7199 49.0195 74.5012 48.1523 74.5012C47.4492 74.5012 46.832 74.6887 46.3008 75.0637C45.7695 75.4387 45.3555 75.9308 45.0586 76.5402V85.5754H42.8906V67.5754H45.0586V74.4308ZM55.5352 79.1183C55.5352 77.8762 55.7773 76.759 56.2617 75.7668C56.7539 74.7746 57.4336 74.009 58.3008 73.4699C59.1758 72.9308 60.1719 72.6613 61.2891 72.6613C63.0156 72.6613 64.4102 73.259 65.4727 74.4543C66.543 75.6496 67.0781 77.2394 67.0781 79.2238V79.3762C67.0781 80.6105 66.8398 81.7199 66.3633 82.7043C65.8945 83.6808 65.2188 84.4426 64.3359 84.9894C63.4609 85.5363 62.4531 85.8098 61.3125 85.8098C59.5938 85.8098 58.1992 85.2121 57.1289 84.0168C56.0664 82.8215 55.5352 81.2394 55.5352 79.2707V79.1183ZM57.7148 79.3762C57.7148 80.7824 58.0391 81.9113 58.6875 82.7629C59.3438 83.6144 60.2188 84.0402 61.3125 84.0402C62.4141 84.0402 63.2891 83.6105 63.9375 82.7512C64.5859 81.884 64.9102 80.673 64.9102 79.1183C64.9102 77.7277 64.5781 76.6027 63.9141 75.7433C63.2578 74.8762 62.3828 74.4426 61.2891 74.4426C60.2188 74.4426 59.3555 74.8683 58.6992 75.7199C58.043 76.5715 57.7148 77.7902 57.7148 79.3762ZM81.0234 82.5871L83.4609 72.8957H85.6289L81.9375 85.5754H80.1797L77.0977 75.966L74.0977 85.5754H72.3398L68.6602 72.8957H70.8164L73.3125 82.3879L76.2656 72.8957H78.0117L81.0234 82.5871Z" fill="black"/>
<path d="M141.213 72.262H137.206V79.1644H134.944V62.1019H140.592C142.514 62.1019 143.991 62.5394 145.022 63.4144C146.061 64.2894 146.581 65.5628 146.581 67.2347C146.581 68.2972 146.292 69.223 145.713 70.012C145.143 70.8011 144.346 71.3909 143.323 71.7816L147.331 79.0237V79.1644H144.917L141.213 72.262ZM137.206 70.4222H140.663C141.78 70.4222 142.667 70.1331 143.323 69.555C143.987 68.9769 144.319 68.2034 144.319 67.2347C144.319 66.18 144.002 65.3714 143.37 64.8089C142.745 64.2464 141.838 63.9612 140.651 63.9534H137.206V70.4222ZM148.831 72.7073C148.831 71.4651 149.073 70.348 149.557 69.3558C150.049 68.3636 150.729 67.598 151.596 67.0589C152.471 66.5198 153.467 66.2503 154.584 66.2503C156.311 66.2503 157.706 66.848 158.768 68.0433C159.838 69.2386 160.374 70.8284 160.374 72.8128V72.9651C160.374 74.1995 160.135 75.3089 159.659 76.2933C159.19 77.2698 158.514 78.0316 157.631 78.5784C156.756 79.1253 155.749 79.3987 154.608 79.3987C152.889 79.3987 151.495 78.8011 150.424 77.6058C149.362 76.4105 148.831 74.8284 148.831 72.8597V72.7073ZM151.01 72.9651C151.01 74.3714 151.334 75.5003 151.983 76.3519C152.639 77.2034 153.514 77.6292 154.608 77.6292C155.709 77.6292 156.584 77.1995 157.233 76.3401C157.881 75.473 158.206 74.262 158.206 72.7073C158.206 71.3167 157.874 70.1917 157.209 69.3323C156.553 68.4651 155.678 68.0316 154.584 68.0316C153.514 68.0316 152.651 68.4573 151.995 69.3089C151.338 70.1605 151.01 71.3792 151.01 72.9651ZM162.518 72.7073C162.518 71.4651 162.76 70.348 163.245 69.3558C163.737 68.3636 164.417 67.598 165.284 67.0589C166.159 66.5198 167.155 66.2503 168.272 66.2503C169.999 66.2503 171.393 66.848 172.456 68.0433C173.526 69.2386 174.061 70.8284 174.061 72.8128V72.9651C174.061 74.1995 173.823 75.3089 173.346 76.2933C172.877 77.2698 172.202 78.0316 171.319 78.5784C170.444 79.1253 169.436 79.3987 168.295 79.3987C166.577 79.3987 165.182 78.8011 164.112 77.6058C163.049 76.4105 162.518 74.8284 162.518 72.8597V72.7073ZM164.698 72.9651C164.698 74.3714 165.022 75.5003 165.67 76.3519C166.327 77.2034 167.202 77.6292 168.295 77.6292C169.397 77.6292 170.272 77.1995 170.92 76.3401C171.569 75.473 171.893 74.262 171.893 72.7073C171.893 71.3167 171.561 70.1917 170.897 69.3323C170.241 68.4651 169.366 68.0316 168.272 68.0316C167.202 68.0316 166.338 68.4573 165.682 69.3089C165.026 70.1605 164.698 71.3792 164.698 72.9651ZM178.819 66.4847L178.877 67.8909C179.807 66.7972 181.061 66.2503 182.639 66.2503C184.413 66.2503 185.62 66.93 186.26 68.2894C186.682 67.68 187.229 67.1878 187.901 66.8128C188.581 66.4378 189.381 66.2503 190.303 66.2503C193.084 66.2503 194.499 67.723 194.545 70.6683V79.1644H192.377V70.7972C192.377 69.8909 192.17 69.2151 191.756 68.7698C191.342 68.3167 190.647 68.0901 189.67 68.0901C188.866 68.0901 188.198 68.3323 187.667 68.8167C187.135 69.2933 186.827 69.9378 186.741 70.7503V79.1644H184.561V70.8558C184.561 69.012 183.659 68.0901 181.854 68.0901C180.432 68.0901 179.459 68.6956 178.936 69.9066V79.1644H176.768V66.4847H178.819Z" fill="black"/>
</svg>
